<?xml version="1.0" encoding="UTF-8" standalone="no"?>
<!-- Created with Inkscape (http://www.inkscape.org/) -->

<svg
   width="41.554779mm"
   height="45.559963mm"
   viewBox="0 0 41.554779 45.559963"
   version="1.1"
   id="svg1"
   xml:space="preserve"
   xmlns="http://www.w3.org/2000/svg"
   xmlns:svg="http://www.w3.org/2000/svg"><defs
     id="defs1"><style
       id="style1">
        .svg-fill-primary {
            fill: #090D49;
        }
    </style></defs><g
     id="layer1"
     transform="translate(-162.46022,-129.19836)"><g
       id="g3"><g
         id="g4"><path
           id="path1"
           style="fill:#000000;fill-opacity:1;strokeWidth:0.512899"
           className="svg-fill-primary"
           d="m 183.04001,134.68894 c -0.60693,5e-5 -1.18945,0.26031 -1.62161,0.7245 l -16.11943,17.5581 c -0.88654,0.97955 -0.88654,2.55305 0,3.5326 0.91605,0.97251 2.37677,0.97251 3.29282,0 l 0.63872,-0.74931 v 16.48737 c -1e-4,1.38967 1.03415,2.51625 2.30994,2.51613 h 4.61936 c 1.25657,-0.029 2.26122,-1.14708 2.26084,-2.51613 v -4.97851 c 1.6e-4,-1.38925 1.03402,-2.51542 2.30942,-2.51561 h 4.61936 c 1.27559,-1.1e-4 2.30977,1.12614 2.30993,2.51561 v 4.97851 c -3.8e-4,1.36905 1.00428,2.48715 2.26085,2.51613 h 4.61935 c 1.27558,-1.9e-4 2.30952,-1.12668 2.30942,-2.51613 v -16.48737 l 0.63924,0.74931 c 0.91599,0.97214 2.37632,0.97214 3.29231,0 0.88654,-0.97955 0.88654,-2.55305 0,-3.5326 l -16.11892,-17.5581 c -0.43215,-0.46419 -1.01467,-0.72445 -1.6216,-0.7245 z m -0.009,15.36646 c 3.11985,0.0387 4.51328,3.15747 4.51328,3.15747 2.03457,6.02993 2.0753,6.04613 -4.57543,6.01513 -6.18616,-0.0288 -6.14481,-0.0367 -3.99497,-5.81415 0,0 0.93727,-3.39716 4.05712,-3.35845 z" /><path
           id="path1-8"
           style="fill:#000000;fill-opacity:1;strokeWidth:0.512899"
           className="svg-fill-primary"
           d="m 183.15016,129.19837 c -0.60693,5e-5 -1.18945,0.26031 -1.62161,0.7245 l -18.40264,20.20662 c -0.0935,0.10264 -1.11549,1.23304 -0.43123,1.87368 0.65541,0.61363 1.45326,-0.0408 1.45326,-0.0408 0,0 18.72869,-20.46992 19.08084,-20.35052 -0.009,-0.006 18.62031,20.64877 18.8139,20.85647 0,0 0.63269,0.45551 1.54868,-0.51663 0.88654,-0.97955 0.24075,-1.39063 -0.64579,-2.37018 l -18.17381,-19.65865 c -0.43215,-0.46419 -1.01467,-0.72445 -1.6216,-0.7245 z" /></g></g></g></svg>
